# xmcd
#
# Track frame offsets:
#	150
#	17979
#	39783
#	59884
#	74869
#	87406
#	100855
#	119117
#	136247
#	153469
#	167656
#	181488
#	203251
#	218028
#	237185
#	255392
#	270824
#	283586
#	297570
#	314017
#
# Disc length: 4432
#
# Revision: 1
# Processed by: cddbd v1.5.1PL0 Copyright (c) Steve Scherf et al.
# Submitted via: EZCDDA 4.3.3.2
# Normalized: r0:TDELIM( - )
#
DISCID=2f114e14
DTITLE=Various Artist - Country Collection
DYEAR=1900
DGENRE=
TTITLE0=Garth Brooks - Cold Shoulder
TTITLE1=Garth Brooks - In Lonesome Dove
TTITLE2=Garth Brooks - The River
TTITLE3=Faith Hill - Bed Of Roses
TTITLE4=Faith Hill - Wild One
TTITLE5=Faith Hill - Just About Noon
TTITLE6=Faith Hill - Piece Of My Heart
TTITLE7=Faith Hill - I've Got This Friend
TTITLE8=Faith Hill - But I Will
TTITLE9=Faith Hill - Just Around The Eyes
TTITLE10=Faith Hill - Go The Distance
TTITLE11=Faith Hill - I Would Be Stronger Than That
TTITLE12=Clint Black - Put Yourself In My Shoes
TTITLE13=Clint Black - Wherever You Go, There You Are
TTITLE14=Clint Black - Time To Kill
TTITLE15=Trisha Yearwood - Thinkin' About You
TTITLE16=Thisha Yearwood - American Girl
TTITLE17=Trisha Yearwood - Those Words We Said
TTITLE18=Trisha Yearwood - O 'Mexico
TTITLE19=Trisha Yearwood - Till I Get It Right
EXTD=
EXTT0=
EXTT1=
EXTT2=
EXTT3=
EXTT4=
EXTT5=
EXTT6=
EXTT7=
EXTT8=
EXTT9=
EXTT10=
EXTT11=
EXTT12=
EXTT13=
EXTT14=
EXTT15=
EXTT16=
EXTT17=
EXTT18=
EXTT19=
PLAYORDER=
